<svg width="24" height="24" viewBox="0 0 24 24" fill="none" xmlns="http://www.w3.org/2000/svg">
<path d="M12 24C18.6274 24 24 18.6274 24 12C24 5.37258 18.6274 0 12 0C5.37258 0 0 5.37258 0 12C0 18.6274 5.37258 24 12 24Z" fill="white"/>
<g clip-path="url(#clip0_2426_2271)">
<path d="M15.7693 13.5519C18.2873 14.0398 20 15.0002 20 16.1055C20 17.705 16.418 19 12 19C7.582 19 4 17.7043 4 16.1055C4 15.0002 5.71333 14.0398 8.23067 13.5519C9.32467 13.8501 10.6167 14.0216 12 14.0216C13.3833 14.0216 14.6753 13.8501 15.7693 13.5526V13.5519ZM14.8053 8.864C16.944 9.2378 18.4173 10.0239 18.4173 10.9346C18.4173 12.2051 15.544 13.2355 12 13.2355C8.456 13.2355 5.58267 12.2051 5.58267 10.9346C5.58267 10.0246 7.056 9.2378 9.19467 8.864C10.0167 9.0831 10.9753 9.2084 12 9.2084C13.0247 9.2084 13.9833 9.0824 14.8053 8.864ZM12.0293 5C14.6833 5 16.8353 5.7798 16.8353 6.7423C16.8353 7.7041 14.6833 8.4839 12.0293 8.4839C9.37533 8.4839 7.22333 7.7041 7.22333 6.7423C7.22333 5.7798 9.37533 5 12.0293 5Z" fill="black"/>
</g>
<defs>
<clipPath id="clip0_2426_2271">
<rect width="16" height="14" fill="white" transform="translate(4 5)"/>
</clipPath>
</defs>
</svg>
