<svg width="120" height="29" viewBox="0 0 120 29" fill="none" xmlns="http://www.w3.org/2000/svg">
<g filter="url(#filter0_ddi_4552_3885)">
<path d="M31.9046 8.45245C31.1664 7.67472 30.2729 7.06097 29.282 6.65103C28.2284 6.21115 27.0965 5.98978 25.9548 6.00036C24.8805 5.99708 23.8146 6.18965 22.8094 6.56863C21.8516 6.9232 20.9688 7.45424 20.2068 8.13422C19.4451 8.83087 18.8398 9.68114 18.4309 10.6289C17.9872 11.6486 17.7635 12.7504 17.7746 13.8624C17.7638 14.9743 17.9874 16.0761 18.4309 17.0958C18.8385 18.0419 19.444 18.8896 20.2068 19.582C20.9718 20.2609 21.8562 20.7917 22.8151 21.1476C23.8203 21.5266 24.8862 21.7191 25.9605 21.7159C27.4821 21.7296 28.9798 21.3373 30.2992 20.5793C31.578 19.86 32.6144 18.7772 33.277 17.468L30.3731 16.0701C30.0021 16.9408 29.3887 17.6864 28.6058 18.2182C27.8211 18.7397 26.8968 19.0111 25.9548 18.9967C24.8421 19.0121 23.7624 18.6188 22.9202 17.8914C22.048 17.1501 21.4629 16.1267 21.2666 14.9989H34.0214C34.1027 13.7494 33.9455 12.4959 33.5583 11.3052C33.2219 10.2449 32.6575 9.27122 31.9046 8.45245ZM21.2524 12.7145C21.4354 11.5888 22.0063 10.5625 22.8663 9.81345C23.7261 9.08179 24.8262 8.69416 25.9548 8.72522C27.089 8.69422 28.1948 9.08271 29.0604 9.81629C29.9224 10.5657 30.4928 11.5948 30.6714 12.723L21.2524 12.7145Z" fill="#14F46F"/>
<path d="M44.6793 20.5111L39.6388 6.23047H36.0217L41.5226 21.4942H44.3327H45.0231H47.8332L53.3369 6.23047H49.717L44.6793 20.5111Z" fill="#14F46F"/>
<path d="M68.9727 8.45243C68.234 7.67528 67.3406 7.06162 66.3501 6.65101C65.2965 6.21143 64.1646 5.99008 63.0229 6.00034C61.9487 5.99706 60.8828 6.18963 59.8776 6.56861C58.9167 6.9229 58.0316 7.45606 57.2692 8.13988C56.5067 8.83578 55.9013 9.68625 55.4934 10.6346C55.0474 11.6536 54.8227 12.7557 54.8342 13.868C54.8229 14.9803 55.0476 16.0824 55.4934 17.1015C55.8999 18.0481 56.5056 18.8961 57.2692 19.5877C58.0333 20.2678 58.918 20.7988 59.8776 21.1533C60.8828 21.5322 61.9487 21.7248 63.0229 21.7215C64.5436 21.7353 66.0404 21.343 67.3588 20.585C68.6376 19.8676 69.6756 18.7881 70.3422 17.4822L67.4412 16.0843C67.0661 16.9503 66.4509 17.6908 65.6682 18.2181C64.8847 18.7398 63.9613 19.0113 63.0201 18.9967C61.9078 19.0129 60.8281 18.6206 59.9855 17.8942C59.1153 17.1512 58.5307 16.1286 58.3319 15.0017H71.0867C71.1689 13.7524 71.0127 12.4989 70.6264 11.308C70.2882 10.2477 69.724 9.27349 68.9727 8.45243ZM58.3177 12.7144C58.5018 11.5892 59.0725 10.5633 59.9315 9.81343C60.8084 9.10534 61.9015 8.71912 63.0286 8.71912C64.1557 8.71912 65.2488 9.10534 66.1257 9.81343C66.9876 10.5633 67.5588 11.5921 67.7396 12.7201L58.3177 12.7144Z" fill="#14F46F"/>
<path d="M92.9937 6.28442H89.6182V16.5985C89.6182 18.3261 89.9639 19.6075 90.6553 20.4429C91.3466 21.2782 92.5097 21.6959 94.1444 21.6959C95.0758 21.6898 96.0051 21.6081 96.9233 21.4515V18.6471C96.1493 18.8247 95.3479 18.8479 94.565 18.7153C94.3296 18.704 94.0998 18.6402 93.8924 18.5286C93.6849 18.417 93.505 18.2604 93.3659 18.0703C93.0873 17.5884 92.9577 17.0347 92.9937 16.4792V11.933H96.9233V8.9695H92.9937V6.28442Z" fill="#14F46F"/>
<path d="M6 6.23047V8.88713V21.4942H9.4011V13.8623L9.29597 8.88713H15.6862V6.23047H9.23914H6Z" fill="#14F46F"/>
<path d="M75.2664 6.23047V8.88713V21.4942H78.6703V13.8623L78.5623 8.88713H84.9525V6.23047H78.5055H75.2664Z" fill="#14F46F"/>
<path d="M112.386 20.0793H102.7V22.0001H112.386V20.0793Z" fill="#14F46F"/>
</g>
<defs>
<filter id="filter0_ddi_4552_3885" x="0" y="0" width="119.386" height="29" filterUnits="userSpaceOnUse" color-interpolation-filters="sRGB">
<feFlood flood-opacity="0" result="BackgroundImageFix"/>
<feColorMatrix in="SourceAlpha" type="matrix" values="0 0 0 0 0 0 0 0 0 0 0 0 0 0 0 0 0 0 127 0" result="hardAlpha"/>
<feOffset dx="2" dy="2"/>
<feGaussianBlur stdDeviation="2.5"/>
<feColorMatrix type="matrix" values="0 0 0 0 0.0238194 0 0 0 0 0.0901389 0 0 0 0 0.116667 0 0 0 1 0"/>
<feBlend mode="normal" in2="BackgroundImageFix" result="effect1_dropShadow_4552_3885"/>
<feColorMatrix in="SourceAlpha" type="matrix" values="0 0 0 0 0 0 0 0 0 0 0 0 0 0 0 0 0 0 127 0" result="hardAlpha"/>
<feOffset/>
<feGaussianBlur stdDeviation="3"/>
<feColorMatrix type="matrix" values="0 0 0 0 0.0784314 0 0 0 0 0.956863 0 0 0 0 0.435294 0 0 0 0.7 0"/>
<feBlend mode="normal" in2="effect1_dropShadow_4552_3885" result="effect2_dropShadow_4552_3885"/>
<feBlend mode="normal" in="SourceGraphic" in2="effect2_dropShadow_4552_3885" result="shape"/>
<feColorMatrix in="SourceAlpha" type="matrix" values="0 0 0 0 0 0 0 0 0 0 0 0 0 0 0 0 0 0 127 0" result="hardAlpha"/>
<feOffset dx="1" dy="1"/>
<feComposite in2="hardAlpha" operator="arithmetic" k2="-1" k3="1"/>
<feColorMatrix type="matrix" values="0 0 0 0 0.638993 0 0 0 0 0.995833 0 0 0 0 0.783959 0 0 0 0.3 0"/>
<feBlend mode="normal" in2="shape" result="effect3_innerShadow_4552_3885"/>
</filter>
</defs>
</svg>
