<svg width="107" height="16" viewBox="0 0 107 16" fill="none" xmlns="http://www.w3.org/2000/svg">
<path d="M25.9046 2.45245C25.1664 1.67472 24.2728 1.06097 23.282 0.651031C22.2284 0.211147 21.0965 -0.0102154 19.9548 0.000361933C18.8805 -0.00292199 17.8146 0.189649 16.8094 0.568632C15.8516 0.923203 14.9688 1.45424 14.2067 2.13422C13.4451 2.83087 12.8398 3.68114 12.4309 4.62892C11.9872 5.6486 11.7635 6.75039 11.7746 7.86237C11.7638 8.97433 11.9874 10.0761 12.4309 11.0958C12.8385 12.0419 13.444 12.8896 14.2067 13.582C14.9718 14.2609 15.8562 14.7917 16.8151 15.1476C17.8203 15.5266 18.8862 15.7191 19.9605 15.7159C21.4821 15.7296 22.9798 15.3373 24.2992 14.5793C25.578 13.86 26.6144 12.7772 27.277 11.468L24.3731 10.0701C24.0021 10.9408 23.3886 11.6864 22.6058 12.2182C21.8211 12.7397 20.8968 13.0111 19.9548 12.9967C18.8421 13.0121 17.7624 12.6188 16.9202 11.8914C16.048 11.1501 15.4629 10.1267 15.2666 8.99891H28.0214C28.1027 7.74943 27.9455 6.49589 27.5582 5.30516C27.2219 4.24493 26.6575 3.27122 25.9046 2.45245ZM15.2524 6.71447C15.4354 5.58878 16.0063 4.56253 16.8662 3.81345C17.7261 3.08179 18.8262 2.69416 19.9548 2.72522C21.089 2.69422 22.1948 3.08271 23.0604 3.81629C23.9224 4.56571 24.4928 5.59485 24.6714 6.72299L15.2524 6.71447Z" fill="#14F46F"/>
<path d="M38.6793 14.5111L33.6387 0.230507H30.0217L35.5226 15.4942H38.3326H39.0231H41.8332L47.3369 0.230507H43.717L38.6793 14.5111Z" fill="#14F46F"/>
<path d="M62.9728 2.45246C62.2341 1.67531 61.3407 1.06165 60.3503 0.651041C59.2966 0.21146 58.1647 -0.00989007 57.023 0.000371653C55.9488 -0.00291227 54.8829 0.189659 53.8777 0.568642C52.9168 0.922929 52.0317 1.45609 51.2693 2.13991C50.5068 2.83581 49.9014 3.68628 49.4935 4.63461C49.0475 5.65366 48.8228 6.75575 48.8343 7.86807C48.823 8.98036 49.0477 10.0824 49.4935 11.1015C49.9 12.0481 50.5057 12.8961 51.2693 13.5877C52.0334 14.2678 52.9181 14.7988 53.8777 15.1533C54.8829 15.5323 55.9488 15.7248 57.023 15.7216C58.5437 15.7353 60.0405 15.343 61.3589 14.585C62.6377 13.8677 63.6757 12.7881 64.3424 11.4823L61.4413 10.0843C61.0662 10.9503 60.451 11.6908 59.6683 12.2182C58.8848 12.7398 57.9614 13.0113 57.0202 12.9967C55.9079 13.0129 54.8282 12.6206 53.9856 11.8943C53.1154 11.1512 52.5308 10.1286 52.332 9.00177H65.0868C65.169 7.75246 65.0128 6.49893 64.6265 5.30801C64.2883 4.24777 63.7241 3.27352 62.9728 2.45246ZM52.3178 6.71448C52.5019 5.58918 53.0726 4.5633 53.9316 3.81346C54.8086 3.10537 55.9016 2.71915 57.0287 2.71915C58.1558 2.71915 59.2489 3.10537 60.1258 3.81346C60.9877 4.56336 61.5589 5.59211 61.7397 6.72016L52.3178 6.71448Z" fill="#14F46F"/>
<path d="M86.9936 0.284492H83.6181V10.5986C83.6181 12.3261 83.9638 13.6076 84.6552 14.4429C85.3466 15.2783 86.5096 15.696 88.1443 15.696C89.0757 15.6899 90.005 15.6082 90.9232 15.4516V12.6472C90.1492 12.8248 89.3478 12.848 88.5649 12.7154C88.3296 12.7041 88.0998 12.6403 87.8923 12.5287C87.6848 12.4171 87.5049 12.2605 87.3658 12.0704C87.0872 11.5885 86.9577 11.0348 86.9936 10.4793V5.93309H90.9232V2.96957H86.9936V0.284492Z" fill="#14F46F"/>
<path d="M0 0.230507V2.88717V15.4942H3.4011V7.86237L3.29597 2.88717H9.68616V0.230507H3.23914H0Z" fill="#14F46F"/>
<path d="M69.2664 0.230507V2.88717V15.4942H72.6703V7.86237L72.5624 2.88717H78.9526V0.230507H72.5055H69.2664Z" fill="#14F46F"/>
<path d="M106.386 14.0793H96.6996V16H106.386V14.0793Z" fill="#14F46F"/>
</svg>
