<svg width="164" height="37" viewBox="0 0 164 37" fill="none" xmlns="http://www.w3.org/2000/svg">
<path d="M23.0417 0.7838C23.1729 0.521479 23.4024 0.39032 23.7303 0.39032H30.6654C30.8293 0.39032 30.9605 0.4559 31.0589 0.58706C31.19 0.685431 31.2556 0.816591 31.2556 0.980541V34.2296C31.2556 34.3936 31.19 34.5411 31.0589 34.6723C30.9605 34.7707 30.8293 34.8198 30.6654 34.8198H23.6811C23.5172 34.8198 23.3696 34.7707 23.2385 34.6723C23.1401 34.5411 23.0909 34.3936 23.0909 34.2296V14.4572C23.0909 14.3261 23.0581 14.2605 22.9925 14.2605C22.927 14.2605 22.8614 14.3097 22.7958 14.4081L18.5659 21.1956C18.4347 21.4579 18.2052 21.5891 17.8773 21.5891H14.3852C14.0573 21.5891 13.8277 21.4579 13.6966 21.1956L9.41747 14.3589C9.35189 14.2605 9.28631 14.2113 9.22073 14.2113C9.15515 14.2113 9.12236 14.2769 9.12236 14.4081V34.2296C9.12236 34.3936 9.05678 34.5411 8.92562 34.6723C8.82725 34.7707 8.69609 34.8198 8.53214 34.8198H1.54786C1.38391 34.8198 1.23636 34.7707 1.1052 34.6723C1.00683 34.5411 0.957642 34.3936 0.957642 34.2296V0.980541C0.957642 0.816591 1.00683 0.685431 1.1052 0.58706C1.23636 0.4559 1.38391 0.39032 1.54786 0.39032H8.48295C8.77806 0.39032 9.00759 0.521479 9.17154 0.7838L16.0083 11.5061C16.1066 11.7029 16.205 11.7029 16.3034 11.5061L23.0417 0.7838Z" fill="#8EF8D2"/>
<path d="M55.694 0.65526C55.8252 0.392939 56.0547 0.26178 56.3826 0.26178H63.3177C63.4817 0.26178 63.6128 0.32736 63.7112 0.45852C63.8424 0.556891 63.9079 0.688051 63.9079 0.852001V34.1011C63.9079 34.265 63.8424 34.4126 63.7112 34.5437C63.6128 34.6421 63.4817 34.6913 63.3177 34.6913H56.3335C56.1695 34.6913 56.0219 34.6421 55.8908 34.5437C55.7924 34.4126 55.7432 34.265 55.7432 34.1011V14.3287C55.7432 14.1975 55.7104 14.132 55.6449 14.132C55.5793 14.132 55.5137 14.1811 55.4481 14.2795L51.2182 21.067C51.087 21.3294 50.8575 21.4605 50.5296 21.4605H47.0375C46.7096 21.4605 46.4801 21.3294 46.3489 21.067L42.0698 14.2303C42.0042 14.132 41.9386 14.0828 41.8731 14.0828C41.8075 14.0828 41.7747 14.1484 41.7747 14.2795V34.1011C41.7747 34.265 41.7091 34.4126 41.5779 34.5437C41.4796 34.6421 41.3484 34.6913 41.1845 34.6913H34.2002C34.0362 34.6913 33.8887 34.6421 33.7575 34.5437C33.6592 34.4126 33.61 34.265 33.61 34.1011V0.852001C33.61 0.688051 33.6592 0.556891 33.7575 0.45852C33.8887 0.32736 34.0362 0.26178 34.2002 0.26178H41.1353C41.4304 0.26178 41.6599 0.392939 41.8239 0.65526L48.6606 11.3776C48.759 11.5743 48.8573 11.5743 48.9557 11.3776L55.694 0.65526Z" fill="#F4129A"/>
<rect x="74.2727" y="0.26178" width="2.29575" height="36.2595" fill="white"/>
<path d="M91.5583 3.20514C92.211 3.20514 92.786 3.33981 93.2832 3.60917C93.7805 3.87852 94.1638 4.26183 94.4332 4.75909C94.7129 5.24599 94.8527 5.8106 94.8527 6.4529C94.8527 7.08484 94.7129 7.64426 94.4332 8.13116C94.1534 8.61807 93.7546 8.9962 93.2366 9.26555C92.729 9.52454 92.1385 9.65404 91.4651 9.65404H88.9788C88.927 9.65404 88.9011 9.67994 88.9011 9.73173V13.9119C88.9011 13.9637 88.8804 14.0103 88.8389 14.0517C88.8078 14.0828 88.7664 14.0983 88.7146 14.0983H87.285C87.2332 14.0983 87.1866 14.0828 87.1451 14.0517C87.114 14.0103 87.0985 13.9637 87.0985 13.9119V3.39161C87.0985 3.33982 87.114 3.29838 87.1451 3.2673C87.1866 3.22586 87.2332 3.20514 87.285 3.20514H91.5583ZM91.2942 8.19332C91.8225 8.19332 92.2473 8.03793 92.5684 7.72714C92.8896 7.41635 93.0501 7.00714 93.0501 6.49952C93.0501 5.98153 92.8896 5.56196 92.5684 5.24081C92.2473 4.91967 91.8225 4.75909 91.2942 4.75909H88.9788C88.927 4.75909 88.9011 4.78499 88.9011 4.83679V8.11562C88.9011 8.16742 88.927 8.19332 88.9788 8.19332H91.2942Z" fill="white"/>
<path d="M99.0847 14.2227C98.2663 14.2227 97.5618 14.0155 96.9713 13.6011C96.3912 13.1867 95.982 12.6117 95.7437 11.8762C95.5676 11.3168 95.4795 10.7263 95.4795 10.1047C95.4795 9.44166 95.5624 8.85116 95.7282 8.33318C95.9664 7.608 96.3808 7.0434 96.9713 6.63937C97.5618 6.23534 98.2715 6.03333 99.1002 6.03333C99.8876 6.03333 100.566 6.23534 101.136 6.63937C101.716 7.0434 102.125 7.60282 102.364 8.31764C102.55 8.8149 102.643 9.4054 102.643 10.0891C102.643 10.7418 102.555 11.3323 102.379 11.8606C102.141 12.5962 101.732 13.1763 101.151 13.6011C100.571 14.0155 99.8824 14.2227 99.0847 14.2227ZM99.0847 12.6687C99.468 12.6687 99.7943 12.5599 100.064 12.3424C100.343 12.1248 100.545 11.8192 100.67 11.4255C100.773 11.0837 100.825 10.6486 100.825 10.1202C100.825 9.5608 100.773 9.12569 100.67 8.8149C100.556 8.42123 100.359 8.1208 100.079 7.91361C99.7995 7.69606 99.4576 7.58728 99.0536 7.58728C98.6703 7.58728 98.3388 7.69606 98.0591 7.91361C97.7794 8.1208 97.5774 8.42123 97.453 8.8149C97.3494 9.17749 97.2976 9.6126 97.2976 10.1202C97.2976 10.6278 97.3494 11.063 97.453 11.4255C97.567 11.8192 97.7638 12.1248 98.0435 12.3424C98.3336 12.5599 98.6807 12.6687 99.0847 12.6687Z" fill="white"/>
<path d="M105.678 14.0983C105.564 14.0983 105.491 14.0465 105.46 13.9429L103.238 6.35966L103.222 6.2975C103.222 6.19391 103.279 6.14211 103.393 6.14211H104.87C104.984 6.14211 105.056 6.19391 105.087 6.2975L106.377 11.4877C106.387 11.5188 106.403 11.5343 106.424 11.5343C106.444 11.5343 106.46 11.5188 106.47 11.4877L107.822 6.2975C107.853 6.19391 107.926 6.14211 108.04 6.14211H109.329C109.443 6.14211 109.516 6.19391 109.547 6.2975L110.93 11.4877C110.94 11.5188 110.956 11.5343 110.977 11.5343C110.997 11.5343 111.013 11.5188 111.023 11.4877L112.406 6.2975C112.437 6.19391 112.51 6.14211 112.624 6.14211L114.085 6.17319C114.147 6.17319 114.188 6.1939 114.209 6.23534C114.24 6.26642 114.25 6.31304 114.24 6.3752L112.002 13.9429C111.971 14.0465 111.904 14.0983 111.8 14.0983H110.308C110.195 14.0983 110.122 14.0465 110.091 13.9429L108.723 9.20339C108.713 9.17231 108.698 9.15677 108.677 9.15677C108.656 9.15677 108.641 9.17231 108.63 9.20339L107.371 13.9429C107.34 14.0465 107.268 14.0983 107.154 14.0983H105.678Z" fill="white"/>
<path d="M121.736 9.23447C121.778 9.49346 121.798 9.78353 121.798 10.1047L121.783 10.5864C121.783 10.7107 121.721 10.7729 121.596 10.7729H116.732C116.681 10.7729 116.655 10.7988 116.655 10.8506C116.686 11.1924 116.732 11.4255 116.795 11.5499C117.043 12.2958 117.649 12.6739 118.613 12.6842C119.317 12.6842 119.877 12.3942 120.291 11.814C120.332 11.7519 120.384 11.7208 120.446 11.7208C120.488 11.7208 120.524 11.7363 120.555 11.7674L121.519 12.5599C121.612 12.6324 121.627 12.7153 121.565 12.8086C121.244 13.2644 120.814 13.6166 120.275 13.8652C119.747 14.1139 119.157 14.2382 118.504 14.2382C117.696 14.2382 117.007 14.0569 116.437 13.6943C115.878 13.3317 115.469 12.8241 115.21 12.1714C114.971 11.612 114.852 10.835 114.852 9.84051C114.852 9.23965 114.914 8.75274 115.039 8.3798C115.246 7.65462 115.634 7.08484 116.204 6.67045C116.784 6.2457 117.478 6.03333 118.286 6.03333C120.327 6.03333 121.477 7.10038 121.736 9.23447ZM118.286 7.58728C117.903 7.58728 117.582 7.6857 117.323 7.88253C117.074 8.06901 116.898 8.33318 116.795 8.67505C116.732 8.85116 116.691 9.07907 116.67 9.35879C116.65 9.41058 116.67 9.43648 116.732 9.43648H119.887C119.939 9.43648 119.965 9.41058 119.965 9.35879C119.944 9.09979 119.913 8.90296 119.871 8.76828C119.778 8.39534 119.592 8.10527 119.312 7.89807C119.043 7.69088 118.701 7.58728 118.286 7.58728Z" fill="white"/>
<path d="M126.989 6.06441C127.32 6.06441 127.61 6.13175 127.859 6.26642C127.942 6.30786 127.973 6.38556 127.952 6.49952L127.688 7.89807C127.678 8.02239 127.605 8.05865 127.471 8.00685C127.315 7.95505 127.134 7.92915 126.927 7.92915C126.792 7.92915 126.688 7.93433 126.616 7.94469C126.181 7.96541 125.818 8.1208 125.528 8.41088C125.238 8.69059 125.093 9.05836 125.093 9.51418V13.9119C125.093 13.9637 125.072 14.0103 125.031 14.0517C125 14.0828 124.958 14.0983 124.906 14.0983H123.477C123.425 14.0983 123.378 14.0828 123.337 14.0517C123.306 14.0103 123.29 13.9637 123.29 13.9119V6.34412C123.29 6.29232 123.306 6.25088 123.337 6.2198C123.378 6.17837 123.425 6.15765 123.477 6.15765H124.906C124.958 6.15765 125 6.17837 125.031 6.2198C125.072 6.25088 125.093 6.29232 125.093 6.34412V7.0434C125.093 7.08484 125.098 7.11074 125.109 7.1211C125.129 7.1211 125.15 7.10556 125.171 7.07448C125.606 6.4011 126.212 6.06441 126.989 6.06441Z" fill="white"/>
<path d="M135.523 9.23447C135.565 9.49346 135.585 9.78353 135.585 10.1047L135.57 10.5864C135.57 10.7107 135.508 10.7729 135.383 10.7729H130.52C130.468 10.7729 130.442 10.7988 130.442 10.8506C130.473 11.1924 130.52 11.4255 130.582 11.5499C130.83 12.2958 131.436 12.6739 132.4 12.6842C133.104 12.6842 133.664 12.3942 134.078 11.814C134.12 11.7519 134.171 11.7208 134.233 11.7208C134.275 11.7208 134.311 11.7363 134.342 11.7674L135.306 12.5599C135.399 12.6324 135.414 12.7153 135.352 12.8086C135.031 13.2644 134.601 13.6166 134.063 13.8652C133.534 14.1139 132.944 14.2382 132.291 14.2382C131.483 14.2382 130.794 14.0569 130.224 13.6943C129.665 13.3317 129.256 12.8241 128.997 12.1714C128.758 11.612 128.639 10.835 128.639 9.84051C128.639 9.23965 128.701 8.75274 128.826 8.3798C129.033 7.65462 129.421 7.08484 129.991 6.67045C130.571 6.2457 131.265 6.03333 132.073 6.03333C134.114 6.03333 135.264 7.10038 135.523 9.23447ZM132.073 7.58728C131.69 7.58728 131.369 7.6857 131.11 7.88253C130.861 8.06901 130.685 8.33318 130.582 8.67505C130.52 8.85116 130.478 9.07907 130.457 9.35879C130.437 9.41058 130.457 9.43648 130.52 9.43648H133.674C133.726 9.43648 133.752 9.41058 133.752 9.35879C133.731 9.09979 133.7 8.90296 133.659 8.76828C133.565 8.39534 133.379 8.10527 133.099 7.89807C132.83 7.69088 132.488 7.58728 132.073 7.58728Z" fill="white"/>
<path d="M142.003 3.40715C142.003 3.35535 142.019 3.31392 142.05 3.28284C142.092 3.2414 142.138 3.22068 142.19 3.22068H143.62C143.671 3.22068 143.713 3.2414 143.744 3.28284C143.785 3.31392 143.806 3.35535 143.806 3.40715V13.9119C143.806 13.9637 143.785 14.0103 143.744 14.0517C143.713 14.0828 143.671 14.0983 143.62 14.0983H142.19C142.138 14.0983 142.092 14.0828 142.05 14.0517C142.019 14.0103 142.003 13.9637 142.003 13.9119V13.4457C142.003 13.4146 141.993 13.3939 141.972 13.3835C141.952 13.3732 141.931 13.3835 141.91 13.4146C141.454 13.9533 140.859 14.2227 140.123 14.2227C139.388 14.2227 138.766 14.031 138.258 13.6477C137.751 13.2644 137.383 12.7309 137.155 12.0471C136.969 11.467 136.875 10.8195 136.875 10.1047C136.875 9.36915 136.963 8.73721 137.14 8.20886C137.368 7.52512 137.735 6.9916 138.243 6.60829C138.751 6.22498 139.388 6.03333 140.154 6.03333C140.869 6.03333 141.454 6.29232 141.91 6.81031C141.931 6.83103 141.952 6.84139 141.972 6.84139C141.993 6.83103 142.003 6.81031 142.003 6.77923V3.40715ZM141.631 11.9228C141.869 11.4981 141.988 10.8972 141.988 10.1202C141.988 9.31217 141.858 8.69577 141.599 8.27102C141.32 7.81519 140.926 7.58728 140.418 7.58728C139.89 7.58728 139.476 7.80483 139.175 8.23994C138.864 8.69577 138.709 9.32771 138.709 10.1358C138.709 10.8609 138.833 11.4566 139.082 11.9228C139.372 12.4201 139.812 12.6687 140.403 12.6687C140.931 12.6687 141.34 12.4201 141.631 11.9228Z" fill="white"/>
<path d="M155.255 8.20886C155.432 8.789 155.52 9.42094 155.52 10.1047C155.52 10.8402 155.421 11.4877 155.224 12.0471C154.996 12.7309 154.629 13.2644 154.121 13.6477C153.613 14.031 152.992 14.2227 152.256 14.2227C151.531 14.2227 150.935 13.9481 150.469 13.3991C150.449 13.368 150.428 13.3576 150.407 13.368C150.386 13.3783 150.376 13.3991 150.376 13.4301V13.9119C150.376 13.9637 150.355 14.0103 150.314 14.0517C150.283 14.0828 150.241 14.0983 150.19 14.0983H148.76C148.708 14.0983 148.661 14.0828 148.62 14.0517C148.589 14.0103 148.573 13.9637 148.573 13.9119V3.40715C148.573 3.35535 148.589 3.31392 148.62 3.28284C148.661 3.2414 148.708 3.22068 148.76 3.22068H150.19C150.241 3.22068 150.283 3.2414 150.314 3.28284C150.355 3.31392 150.376 3.35535 150.376 3.40715V6.77923C150.376 6.81031 150.386 6.83103 150.407 6.84139C150.428 6.85174 150.449 6.84656 150.469 6.82585C150.915 6.2975 151.505 6.03333 152.241 6.03333C153.007 6.03333 153.639 6.22498 154.137 6.60829C154.644 6.9916 155.017 7.52512 155.255 8.20886ZM153.297 11.9228C153.546 11.4877 153.67 10.892 153.67 10.1358C153.67 9.32771 153.515 8.69577 153.204 8.23994C152.924 7.80483 152.51 7.58728 151.961 7.58728C151.453 7.58728 151.065 7.81519 150.796 8.27102C150.537 8.69577 150.407 9.31217 150.407 10.1202C150.407 10.9179 150.526 11.5188 150.764 11.9228C151.034 12.4201 151.438 12.6687 151.977 12.6687C152.267 12.6687 152.526 12.6065 152.754 12.4822C152.981 12.3476 153.163 12.1611 153.297 11.9228Z" fill="white"/>
<path d="M156.654 17.1907C156.623 17.1907 156.597 17.17 156.577 17.1285C156.556 17.0975 156.545 17.056 156.545 17.0042V15.8854C156.545 15.8336 156.561 15.787 156.592 15.7455C156.633 15.7144 156.68 15.6989 156.732 15.6989H156.747C157.172 15.6885 157.504 15.6419 157.742 15.5591C157.98 15.4865 158.177 15.3415 158.332 15.1239C158.488 14.9064 158.628 14.5801 158.752 14.145C158.762 14.1242 158.762 14.0932 158.752 14.0517L156.188 6.35966C156.178 6.33894 156.172 6.31304 156.172 6.28196C156.172 6.18873 156.224 6.14211 156.328 6.14211H157.851C157.965 6.14211 158.037 6.19391 158.068 6.2975L159.622 11.7674C159.633 11.7985 159.648 11.814 159.669 11.814C159.69 11.814 159.705 11.7985 159.715 11.7674L161.269 6.2975C161.301 6.19391 161.373 6.14211 161.487 6.14211H162.963C163.025 6.14211 163.067 6.16283 163.088 6.20427C163.119 6.23534 163.124 6.28714 163.103 6.35966L160.368 14.5334C160.109 15.269 159.855 15.818 159.607 16.1806C159.358 16.5432 159.016 16.8022 158.581 16.9576C158.156 17.113 157.55 17.1907 156.763 17.1907H156.654Z" fill="white"/>
<path d="M93.9359 33.0983C93.8323 33.0983 93.765 33.0465 93.7339 32.9429L93.2211 31.2802C93.2004 31.2388 93.1745 31.2181 93.1434 31.2181H89.0409C89.0099 31.2181 88.984 31.2388 88.9632 31.2802L88.4504 32.9429C88.4194 33.0465 88.352 33.0983 88.2484 33.0983H86.6945C86.6323 33.0983 86.5857 33.0828 86.5546 33.0517C86.5235 33.0103 86.5184 32.9533 86.5391 32.8808L89.9112 22.3761C89.9422 22.2725 90.0096 22.2207 90.1132 22.2207H92.0556C92.1592 22.2207 92.2265 22.2725 92.2576 22.3761L95.6452 32.8808C95.6556 32.9015 95.6608 32.9274 95.6608 32.9585C95.6608 33.0517 95.6038 33.0983 95.4898 33.0983H93.9359ZM89.445 29.7107C89.4346 29.7729 89.4553 29.804 89.5071 29.804H92.6616C92.7238 29.804 92.7445 29.7729 92.7238 29.7107L91.1232 24.505C91.1129 24.4635 91.0973 24.4428 91.0766 24.4428C91.0559 24.4428 91.0404 24.4635 91.03 24.505L89.445 29.7107Z" fill="white"/>
<path d="M99.972 25.0333C100.625 25.0333 101.2 25.1473 101.697 25.3752C102.194 25.6031 102.577 25.9191 102.847 26.3231C103.116 26.7168 103.251 27.1674 103.251 27.675V32.9119C103.251 32.9637 103.23 33.0103 103.189 33.0517C103.158 33.0828 103.116 33.0983 103.064 33.0983H101.635C101.583 33.0983 101.536 33.0828 101.495 33.0517C101.464 33.0103 101.448 32.9637 101.448 32.9119V32.4146C101.448 32.3835 101.438 32.368 101.417 32.368C101.396 32.3576 101.376 32.3628 101.355 32.3835C100.847 32.9429 100.112 33.2227 99.1484 33.2227C98.3714 33.2227 97.7291 33.0258 97.2215 32.6322C96.7243 32.2385 96.4756 31.6532 96.4756 30.8762C96.4756 30.0681 96.7553 29.4414 97.3148 28.9959C97.8845 28.5401 98.6822 28.3122 99.7078 28.3122H101.371C101.422 28.3122 101.448 28.2863 101.448 28.2345V27.8615C101.448 27.4575 101.329 27.1467 101.091 26.9292C100.853 26.7012 100.495 26.5873 100.019 26.5873C99.625 26.5873 99.3038 26.6598 99.0552 26.8048C98.8169 26.9395 98.6667 27.1312 98.6045 27.3798C98.5735 27.5041 98.5009 27.5559 98.387 27.5352L96.8797 27.3487C96.8279 27.3384 96.7812 27.3228 96.7398 27.3021C96.7087 27.271 96.6984 27.2348 96.7087 27.1933C96.7916 26.5614 97.1283 26.0434 97.7188 25.6394C98.3196 25.2353 99.0707 25.0333 99.972 25.0333ZM99.5991 31.793C100.107 31.793 100.542 31.6583 100.904 31.389C101.267 31.1196 101.448 30.7778 101.448 30.3634V29.633C101.448 29.5812 101.422 29.5553 101.371 29.5553H100.065C99.5162 29.5553 99.0811 29.6589 98.7599 29.8661C98.4491 30.0733 98.2937 30.3686 98.2937 30.7519C98.2937 31.0834 98.4129 31.3424 98.6512 31.5288C98.8998 31.705 99.2158 31.793 99.5991 31.793Z" fill="white"/>
<path d="M106.883 33.0983C106.779 33.0983 106.712 33.0465 106.681 32.9429L104.179 25.3597C104.168 25.3389 104.163 25.313 104.163 25.282C104.163 25.1887 104.22 25.1421 104.334 25.1421H105.919C106.033 25.1421 106.106 25.1939 106.137 25.2975L107.644 30.4877C107.655 30.5188 107.67 30.5343 107.691 30.5343C107.712 30.5343 107.727 30.5188 107.737 30.4877L109.245 25.2975C109.276 25.1939 109.348 25.1421 109.462 25.1421L111.047 25.1732C111.109 25.1732 111.156 25.1939 111.187 25.2353C111.218 25.2664 111.223 25.3182 111.203 25.3907L108.716 32.9429C108.685 33.0465 108.618 33.0983 108.514 33.0983H106.883Z" fill="white"/>
<path d="M118.686 28.2345C118.727 28.4935 118.748 28.7835 118.748 29.1047L118.733 29.5864C118.733 29.7107 118.67 29.7729 118.546 29.7729H113.682C113.63 29.7729 113.605 29.7988 113.605 29.8506C113.636 30.1924 113.682 30.4255 113.744 30.5499C113.993 31.2958 114.599 31.6739 115.563 31.6842C116.267 31.6842 116.826 31.3942 117.241 30.814C117.282 30.7519 117.334 30.7208 117.396 30.7208C117.438 30.7208 117.474 30.7363 117.505 30.7674L118.468 31.5599C118.562 31.6324 118.577 31.7153 118.515 31.8086C118.194 32.2644 117.764 32.6166 117.225 32.8652C116.697 33.1139 116.106 33.2382 115.454 33.2382C114.646 33.2382 113.957 33.0569 113.387 32.6943C112.828 32.3317 112.418 31.8241 112.159 31.1714C111.921 30.612 111.802 29.835 111.802 28.8405C111.802 28.2397 111.864 27.7527 111.988 27.3798C112.196 26.6546 112.584 26.0848 113.154 25.6705C113.734 25.2457 114.428 25.0333 115.236 25.0333C117.277 25.0333 118.427 26.1004 118.686 28.2345ZM115.236 26.5873C114.853 26.5873 114.532 26.6857 114.273 26.8825C114.024 27.069 113.848 27.3332 113.744 27.675C113.682 27.8512 113.641 28.0791 113.62 28.3588C113.599 28.4106 113.62 28.4365 113.682 28.4365H116.837C116.889 28.4365 116.914 28.4106 116.914 28.3588C116.894 28.0998 116.863 27.903 116.821 27.7683C116.728 27.3953 116.542 27.1053 116.262 26.8981C115.992 26.6909 115.651 26.5873 115.236 26.5873Z" fill="white"/>
</svg>
