<svg width="108" height="14" viewBox="0 0 108 14" fill="none" xmlns="http://www.w3.org/2000/svg">
<g clip-path="url(#clip0_7040_53235)">
<path d="M5.41967 14C3.82723 14 2.52249 13.6371 1.50546 12.9111C0.501821 12.1722 0 11.1222 0 9.76108C0 9.4759 0.0334547 9.1259 0.100365 8.71108C0.274329 7.77777 0.521895 6.65648 0.84306 5.34722C1.75303 1.78241 4.10156 0 7.88864 0C8.91904 0 9.8424 0.168519 10.6587 0.505556C11.475 0.829633 12.1173 1.32222 12.5857 1.98333C13.054 2.63148 13.2882 3.40926 13.2882 4.31667C13.2882 4.58889 13.2548 4.93241 13.1879 5.34722C12.9871 6.50093 12.7463 7.62223 12.4653 8.71108C11.9969 10.487 11.1873 11.8157 10.0365 12.6972C8.88555 13.5657 7.34668 14 5.41967 14ZM5.7007 11.2C6.45008 11.2 7.08572 10.9861 7.60764 10.5583C8.14288 10.1305 8.52427 9.4759 8.75174 8.59446C9.05958 7.3759 9.29371 6.31296 9.45435 5.40555C9.50787 5.13333 9.53463 4.85463 9.53463 4.56945C9.53463 3.38981 8.89893 2.8 7.62768 2.8C6.8783 2.8 6.23597 3.01389 5.7007 3.44167C5.1788 3.86945 4.8041 4.52407 4.57661 5.40555C4.33574 6.27407 4.09487 7.33705 3.85399 8.59446C3.80046 8.85367 3.7737 9.1259 3.7737 9.41108C3.7737 10.6037 4.41603 11.2 5.7007 11.2Z" fill="white"/>
<path d="M15.325 13.8054C15.1778 13.8054 15.0641 13.7601 14.9838 13.6694C14.9169 13.5656 14.8968 13.449 14.9235 13.3194L17.6936 0.680447C17.7204 0.537854 17.794 0.421188 17.9144 0.330447C18.0348 0.239706 18.162 0.194336 18.2958 0.194336H23.6351C25.1206 0.194336 26.3115 0.492483 27.2081 1.08878C28.1181 1.68508 28.5731 2.54711 28.5731 3.67489C28.5731 3.99896 28.533 4.336 28.4527 4.686C28.1181 6.17674 27.4423 7.27856 26.4253 7.99158C25.4217 8.70453 24.0433 9.06097 22.2903 9.06097H19.5804L18.6571 13.3194C18.6303 13.4619 18.5567 13.5786 18.4363 13.6694C18.3158 13.7601 18.1888 13.8054 18.0549 13.8054H15.325ZM22.4308 6.37767C22.9929 6.37767 23.4813 6.2286 23.8961 5.93045C24.3244 5.6323 24.6054 5.20452 24.7392 4.64711C24.7793 4.42674 24.7994 4.2323 24.7994 4.06378C24.7994 3.68786 24.6857 3.40267 24.4582 3.20822C24.2307 3.00082 23.8426 2.89711 23.294 2.89711H20.8852L20.1224 6.37767H22.4308Z" fill="white"/>
<path d="M33.0958 13.8054C32.9486 13.8054 32.8348 13.7601 32.7545 13.6694C32.6743 13.5656 32.6475 13.449 32.6743 13.3194L34.9024 3.24711H31.3294C31.1822 3.24711 31.0684 3.20174 30.9881 3.11101C30.9212 3.0073 30.9012 2.89063 30.9279 2.761L31.3896 0.680447C31.4164 0.537854 31.4899 0.421188 31.6104 0.330447C31.7308 0.239706 31.858 0.194336 31.9918 0.194336H42.791C42.9382 0.194336 43.0519 0.239706 43.1323 0.330447C43.1858 0.408225 43.2125 0.486002 43.2125 0.56378C43.2125 0.602669 43.2058 0.641558 43.1924 0.680447L42.7308 2.761C42.704 2.9036 42.6304 3.02027 42.5099 3.11101C42.4029 3.20174 42.2758 3.24711 42.1286 3.24711H38.5757L36.3476 13.3194C36.3208 13.4619 36.2472 13.5786 36.1268 13.6694C36.0063 13.7601 35.8792 13.8054 35.7454 13.8054H33.0958Z" fill="white"/>
<path d="M43.7245 13.8054C43.5773 13.8054 43.4636 13.7601 43.3834 13.6694C43.303 13.5656 43.2762 13.449 43.303 13.3194L46.0932 0.680447C46.1199 0.537854 46.1936 0.421188 46.314 0.330447C46.4344 0.239706 46.5615 0.194336 46.6954 0.194336H49.4052C49.5524 0.194336 49.6662 0.239706 49.7464 0.330447C49.8 0.408225 49.8267 0.486002 49.8267 0.56378C49.8267 0.602669 49.82 0.641558 49.8066 0.680447L47.0366 13.3194C47.0098 13.4619 46.9362 13.5786 46.8158 13.6694C46.6954 13.7601 46.5682 13.8054 46.4344 13.8054H43.7245Z" fill="white"/>
<path d="M51.3678 13.8054C51.2206 13.8054 51.1068 13.7601 51.0265 13.6694C50.9463 13.5786 50.9195 13.4619 50.9463 13.3194L53.7163 0.680447C53.7431 0.537854 53.8166 0.421188 53.9371 0.330447C54.0576 0.239706 54.1914 0.194336 54.3386 0.194336H56.5064C56.8276 0.194336 57.035 0.336928 57.1287 0.622114L59.3166 6.74711L64.1943 0.622114C64.2612 0.51841 64.3549 0.421188 64.4753 0.330447C64.6091 0.239706 64.7698 0.194336 64.9571 0.194336H67.1451C67.2923 0.194336 67.406 0.239706 67.4863 0.330447C67.5398 0.408225 67.5666 0.486002 67.5666 0.56378C67.5666 0.602669 67.5599 0.641558 67.5465 0.680447L64.7764 13.3194C64.7497 13.4619 64.676 13.5786 64.5556 13.6694C64.4352 13.7601 64.3081 13.8054 64.1742 13.8054H61.7454C61.5982 13.8054 61.4845 13.7601 61.4042 13.6694C61.3373 13.5656 61.3172 13.449 61.344 13.3194L62.9097 6.14434L59.8385 10.0916C59.7047 10.2342 59.5776 10.3444 59.4571 10.4221C59.3367 10.4999 59.1962 10.5388 59.0356 10.5388H57.9918C57.7108 10.5388 57.5168 10.3897 57.4097 10.0916L55.9846 5.96934L54.3787 13.3194C54.3519 13.4619 54.2783 13.5786 54.1579 13.6694C54.0375 13.7601 53.9103 13.8054 53.7765 13.8054H51.3678Z" fill="white"/>
<path d="M69.0857 13.8054C68.9385 13.8054 68.8248 13.7601 68.7445 13.6694C68.6642 13.5656 68.6374 13.449 68.6642 13.3194L71.4543 0.680447C71.4811 0.537854 71.5547 0.421188 71.6751 0.330447C71.7953 0.239706 71.9226 0.194336 72.0564 0.194336H74.7663C74.9137 0.194336 75.0274 0.239706 75.1076 0.330447C75.1612 0.408225 75.1877 0.486002 75.1877 0.56378C75.1877 0.602669 75.1813 0.641558 75.1677 0.680447L72.3978 13.3194C72.3713 13.4619 72.2976 13.5786 72.1767 13.6694C72.0564 13.7601 71.9291 13.8054 71.7953 13.8054H69.0857Z" fill="white"/>
<path d="M81.6871 14C80.5093 14 79.4989 13.8445 78.656 13.5333C77.826 13.2222 77.197 12.8074 76.7691 12.2889C76.3541 11.7704 76.1465 11.1935 76.1465 10.5583C76.1465 10.4546 76.1601 10.2991 76.1866 10.0917C76.2138 9.975 76.2675 9.87777 76.3476 9.8C76.4414 9.72223 76.548 9.68331 76.6689 9.68331H79.2377C79.3987 9.68331 79.519 9.70928 79.5991 9.76108C79.6928 9.81295 79.7866 9.90367 79.8803 10.0333C79.9741 10.3704 80.188 10.6491 80.5229 10.8695C80.8706 11.0898 81.3458 11.2 81.9476 11.2C82.7103 11.2 83.3264 11.0833 83.7944 10.85C84.2631 10.6167 84.5443 10.2991 84.6373 9.89723C84.6509 9.84536 84.6574 9.76759 84.6574 9.66392C84.6574 9.33982 84.4506 9.08705 84.0355 8.90554C83.6205 8.71108 82.8577 8.48428 81.7472 8.225C80.4492 7.95277 79.4653 7.54446 78.7962 7C78.1272 6.44259 77.793 5.71667 77.793 4.82222C77.793 4.51111 77.8331 4.19352 77.9133 3.86945C78.1809 2.66389 78.8435 1.71759 79.9004 1.03055C80.9708 0.343519 82.349 0 84.0355 0C85.0524 0 85.9561 0.175 86.7454 0.525C87.5346 0.875 88.1435 1.32222 88.5722 1.86667C89.0137 2.39815 89.2341 2.92963 89.2341 3.46111C89.2341 3.61667 89.2276 3.72685 89.214 3.79167C89.1875 3.90833 89.1274 4.00555 89.0337 4.08333C88.9536 4.16112 88.8527 4.2 88.7324 4.2H86.0427C85.7486 4.2 85.5475 4.08981 85.4409 3.86945C85.4273 3.57129 85.2663 3.31852 84.9586 3.11111C84.6509 2.9037 84.2495 2.8 83.7543 2.8C83.1654 2.8 82.6774 2.9037 82.2889 3.11111C81.9146 3.31852 81.6799 3.62315 81.5869 4.025C81.5733 4.08981 81.5662 4.17407 81.5662 4.27778C81.5662 4.58889 81.7536 4.84815 82.1286 5.05555C82.5164 5.25 83.1926 5.45093 84.1558 5.65833C85.6548 5.94352 86.7454 6.35185 87.428 6.88333C88.1235 7.41482 88.4713 8.12133 88.4713 9.00277C88.4713 9.3009 88.4312 9.625 88.3511 9.975C88.057 11.2972 87.3407 12.3019 86.203 12.9889C85.0795 13.6629 83.574 14 81.6871 14Z" fill="white"/>
<path d="M91.1346 13.8054C90.9872 13.8054 90.8734 13.7601 90.7933 13.6694C90.7131 13.5786 90.6859 13.4619 90.7131 13.3194L93.483 0.680447C93.5095 0.537854 93.5832 0.421188 93.7042 0.330447C93.8244 0.239706 93.9582 0.194336 94.1056 0.194336H96.273C96.5943 0.194336 96.8018 0.336928 96.8955 0.622114L99.0837 6.74711L103.961 0.622114C104.028 0.51841 104.122 0.421188 104.242 0.330447C104.376 0.239706 104.536 0.194336 104.724 0.194336H106.912C107.059 0.194336 107.173 0.239706 107.253 0.330447C107.307 0.408225 107.333 0.486002 107.333 0.56378C107.333 0.602669 107.327 0.641558 107.313 0.680447L104.543 13.3194C104.516 13.4619 104.442 13.5786 104.322 13.6694C104.202 13.7601 104.075 13.8054 103.941 13.8054H101.512C101.365 13.8054 101.251 13.7601 101.171 13.6694C101.104 13.5656 101.084 13.449 101.111 13.3194L102.677 6.14434L99.6053 10.0916C99.4715 10.2342 99.3442 10.3444 99.224 10.4221C99.1037 10.4999 98.9628 10.5388 98.8025 10.5388H97.7585C97.4773 10.5388 97.2834 10.3897 97.1767 10.0916L95.7514 5.96934L94.1457 13.3194C94.1185 13.4619 94.0448 13.5786 93.9245 13.6694C93.8043 13.7601 93.677 13.8054 93.5431 13.8054H91.1346Z" fill="white"/>
</g>
<defs>
<clipPath id="clip0_7040_53235">
<rect width="107.333" height="14" fill="white"/>
</clipPath>
</defs>
</svg>
