<svg width="40" height="40" viewBox="0 0 40 40" fill="none" xmlns="http://www.w3.org/2000/svg">
<path d="M20 40C31.0457 40 40 31.0457 40 20C40 8.95431 31.0457 0 20 0C8.95431 0 0 8.95431 0 20C0 31.0457 8.95431 40 20 40Z" fill="white"/>
<path d="M14.1706 25.3157C12.9798 25.3157 12.0041 25.0355 11.2435 24.4751C10.493 23.9047 10.1177 23.0941 10.1177 22.0433C10.1177 21.8232 10.1427 21.5529 10.1927 21.2327C10.3229 20.5122 10.508 19.6465 10.7482 18.6358C11.4286 15.8838 13.185 14.5078 16.017 14.5078C16.7876 14.5078 17.4781 14.6379 18.0886 14.8981C18.699 15.1482 19.1794 15.5285 19.5296 16.0389C19.8798 16.5393 20.055 17.1397 20.055 17.8402C20.055 18.0504 20.03 18.3156 19.9799 18.6358C19.8298 19.5265 19.6497 20.3921 19.4395 21.2327C19.0893 22.6037 18.4838 23.6295 17.6232 24.31C16.7626 24.9805 15.6118 25.3157 14.1706 25.3157ZM14.3808 23.1541C14.9413 23.1541 15.4166 22.989 15.8069 22.6588C16.2072 22.3285 16.4924 21.8232 16.6625 21.1427C16.8926 20.202 17.0678 19.3813 17.1879 18.6809C17.2279 18.4707 17.2479 18.2556 17.2479 18.0353C17.2479 17.1247 16.7726 16.6693 15.8219 16.6693C15.2614 16.6693 14.7811 16.8345 14.3808 17.1647C13.9906 17.495 13.7103 18.0004 13.5402 18.6809C13.3601 19.3513 13.1799 20.172 12.9998 21.1427C12.9598 21.3428 12.9398 21.5529 12.9398 21.7731C12.9398 22.6938 13.4202 23.1541 14.3808 23.1541Z" fill="#FF0420"/>
<path d="M20.7442 25.1656C20.6342 25.1656 20.549 25.1306 20.489 25.0605C20.439 24.9804 20.424 24.8904 20.444 24.7903L22.5155 15.0331C22.5355 14.923 22.5906 14.833 22.6806 14.7629C22.7707 14.6929 22.8658 14.6578 22.9658 14.6578H26.9588C28.0696 14.6578 28.9602 14.888 29.6307 15.3483C30.3113 15.8087 30.6515 16.4742 30.6515 17.3448C30.6515 17.595 30.6215 17.8552 30.5614 18.1254C30.3113 19.2762 29.8059 20.1269 29.0454 20.6773C28.2948 21.2277 27.264 21.5029 25.953 21.5029H23.9266L23.2361 24.7903C23.216 24.9004 23.161 24.9904 23.071 25.0605C22.9809 25.1306 22.8858 25.1656 22.7858 25.1656H20.7442ZM26.0582 19.4314C26.4784 19.4314 26.8437 19.3162 27.1539 19.0861C27.4742 18.8559 27.6843 18.5257 27.7844 18.0954C27.8144 17.9252 27.8294 17.7751 27.8294 17.645C27.8294 17.3548 27.7444 17.1346 27.5742 16.9846C27.4041 16.8244 27.1139 16.7444 26.7036 16.7444H24.9022L24.3318 19.4314H26.0582Z" fill="#FF0420"/>
</svg>
