<?xml version="1.0" encoding="utf-8"?>
<!-- Generator: Adobe Illustrator 27.2.0, SVG Export Plug-In . SVG Version: 6.00 Build 0)  -->
<svg version="1.1" id="Capa_1" xmlns="http://www.w3.org/2000/svg" xmlns:xlink="http://www.w3.org/1999/xlink" x="0px" y="0px"
	 viewBox="0 0 24 24" style="enable-background:new 0 0 24 24;" xml:space="preserve">
<style type="text/css">
	.st0{fill:#FF0420;}
	.st1{fill:#FFFFFF;}
</style>
<path class="st0" d="M12,24c6.6,0,12-5.4,12-12c0-6.6-5.4-12-12-12C5.4,0,0,5.4,0,12C0,18.6,5.4,24,12,24z"/>
<path class="st1" d="M6.8,16.7c-1,0-1.9-0.2-2.6-0.7c-0.7-0.5-1-1.2-1-2.1c0-0.2,0-0.4,0.1-0.7c0.1-0.6,0.3-1.4,0.5-2.3
	c0.6-2.4,2.1-3.6,4.6-3.6c0.7,0,1.3,0.1,1.8,0.3c0.5,0.2,1,0.6,1.3,1c0.3,0.4,0.5,1,0.5,1.6c0,0.2,0,0.4-0.1,0.7
	c-0.1,0.8-0.3,1.5-0.5,2.3c-0.3,1.2-0.8,2.1-1.6,2.7C9.1,16.4,8.1,16.7,6.8,16.7z M7,14.8c0.5,0,0.9-0.1,1.2-0.4
	C8.6,14.1,8.8,13.6,9,13c0.2-0.8,0.4-1.5,0.5-2.2c0-0.2,0.1-0.4,0.1-0.6c0-0.8-0.4-1.2-1.2-1.2C7.7,9.1,7.3,9.3,7,9.5
	c-0.3,0.3-0.6,0.7-0.7,1.3c-0.2,0.6-0.3,1.3-0.5,2.2c0,0.2-0.1,0.4-0.1,0.6C5.7,14.4,6.1,14.8,7,14.8z"/>
<path class="st1" d="M12.5,16.5c-0.1,0-0.2,0-0.2-0.1c0-0.1-0.1-0.1,0-0.2l1.8-8.5c0-0.1,0.1-0.2,0.1-0.2c0.1-0.1,0.2-0.1,0.2-0.1
	H18c1,0,1.8,0.2,2.3,0.6c0.6,0.4,0.9,1,0.9,1.7c0,0.2,0,0.4-0.1,0.7c-0.2,1-0.7,1.8-1.3,2.2c-0.7,0.5-1.6,0.7-2.7,0.7h-1.8l-0.6,2.9
	c0,0.1-0.1,0.2-0.1,0.2c-0.1,0.1-0.2,0.1-0.2,0.1H12.5z M17.2,11.5c0.4,0,0.7-0.1,1-0.3c0.3-0.2,0.5-0.5,0.6-0.9c0-0.1,0-0.3,0-0.4
	c0-0.3-0.1-0.4-0.2-0.6c-0.1-0.1-0.4-0.2-0.8-0.2h-1.6l-0.5,2.4H17.2z"/>
</svg>
