<svg width="86" height="18" viewBox="0 0 86 18" fill="none" xmlns="http://www.w3.org/2000/svg">
<g clip-path="url(#clip0_7468_111384)">
<path d="M15.1531 5.49894C14.7827 5.27061 14.301 5.27061 13.8935 5.49894L11.0036 7.24944L9.04001 8.39109L6.15018 10.1417C5.77971 10.37 5.29805 10.37 4.89051 10.1417L2.59345 8.77168C2.22296 8.54336 1.96361 8.12475 1.96361 7.66806V4.96617C1.96361 4.50951 2.18591 4.09091 2.59345 3.86258L4.85346 2.53065C5.22395 2.30232 5.70557 2.30232 6.11314 2.53065L8.37314 3.86258C8.74362 4.09091 9.00296 4.50951 9.00296 4.96617V6.7167L10.9666 5.537V3.78647C10.9666 3.32981 10.7443 2.91121 10.3368 2.68288L6.15018 0.171247C5.77971 -0.0570825 5.29805 -0.0570825 4.89051 0.171247L0.62984 2.68288C0.222296 2.91121 0 3.32981 0 3.78647V8.84779C0 9.30442 0.222296 9.72304 0.62984 9.95136L4.89051 12.463C5.261 12.6914 5.74266 12.6914 6.15018 12.463L9.04001 10.7505L11.0036 9.57082L13.8935 7.85835C14.264 7.63003 14.7456 7.63003 15.1531 7.85835L17.4131 9.19029C17.7837 9.41861 18.043 9.83722 18.043 10.2939V12.9958C18.043 13.4524 17.8207 13.871 17.4131 14.0993L15.1531 15.4694C14.7827 15.6977 14.301 15.6977 13.8935 15.4694L11.6335 14.1374C11.263 13.9091 11.0036 13.4905 11.0036 13.0338V11.2833L9.04001 12.463V14.2135C9.04001 14.6702 9.26231 15.0888 9.66989 15.3171L13.9305 17.8288C14.301 18.0571 14.7827 18.0571 15.1902 17.8288L19.4509 15.3171C19.8214 15.0888 20.0807 14.6702 20.0807 14.2135V9.15221C20.0807 8.69557 19.8584 8.27696 19.4509 8.04864L15.1531 5.49894Z" fill="white"/>
<path d="M27.9034 16.3814V12.1796C28.3552 12.7533 29.1751 13.074 30.129 13.074C32.5554 13.074 34.1953 11.3358 34.1953 8.68645C34.1953 6.03708 32.6893 4.29895 30.3298 4.29895C29.2421 4.29895 28.4054 4.70395 27.9034 5.36208V4.43395H25.5774V16.3814H27.9034ZM29.8445 11.049C28.5895 11.049 27.7695 10.104 27.7695 8.68645C27.7695 7.25208 28.5895 6.30708 29.8445 6.30708C31.0661 6.30708 31.9028 7.25208 31.9028 8.68645C31.9028 10.104 31.0661 11.049 29.8445 11.049Z" fill="white"/>
<path d="M39.4771 13.074C42.0709 13.074 43.9283 11.2177 43.9283 8.68645C43.9283 6.1552 42.0709 4.29895 39.4771 4.29895C36.8834 4.29895 35.0259 6.1552 35.0259 8.68645C35.0259 11.2177 36.8834 13.074 39.4771 13.074ZM39.4771 11.049C38.222 11.049 37.3686 10.0871 37.3686 8.68645C37.3686 7.26895 38.222 6.30708 39.4771 6.30708C40.7322 6.30708 41.5856 7.26895 41.5856 8.68645C41.5856 10.0871 40.7322 11.049 39.4771 11.049Z" fill="white"/>
<path d="M47.6605 12.9389V0.738281H45.3345V12.9389H47.6605Z" fill="white"/>
<path d="M54.6526 4.43396L52.8955 9.91833L51.1217 4.43396H48.7455L51.8078 12.8715L50.5695 16.3815H52.7951L53.9832 12.9052L57.0455 4.43396H54.6526Z" fill="white"/>
<path d="M63.5782 5.2777C63.1094 4.68708 62.273 4.29895 61.2522 4.29895C58.792 4.29895 57.303 6.03708 57.303 8.68645C57.303 11.3358 58.792 13.074 61.2854 13.074C62.273 13.074 63.1594 12.7027 63.595 12.0783V13.1921C63.595 13.9852 63.0762 14.5421 62.373 14.5421H58.4907V16.3814H62.7412C64.649 16.3814 65.921 15.2171 65.921 13.4452V4.43395H63.5782V5.2777ZM61.6536 11.049C60.4153 11.049 59.5952 10.1208 59.5952 8.68645C59.5952 7.25208 60.4153 6.30708 61.6536 6.30708C62.9087 6.30708 63.7288 7.25208 63.7288 8.68645C63.7288 10.1208 62.9087 11.049 61.6536 11.049Z" fill="white"/>
<path d="M71.7847 13.074C74.3788 13.074 76.2359 11.2177 76.2359 8.68645C76.2359 6.1552 74.3788 4.29895 71.7847 4.29895C69.1912 4.29895 67.3335 6.1552 67.3335 8.68645C67.3335 11.2177 69.1912 13.074 71.7847 13.074ZM71.7847 11.049C70.5295 11.049 69.6763 10.0871 69.6763 8.68645C69.6763 7.26895 70.5295 6.30708 71.7847 6.30708C73.0398 6.30708 73.8931 7.26895 73.8931 8.68645C73.8931 10.0871 73.0398 11.049 71.7847 11.049Z" fill="white"/>
<path d="M79.8513 12.939V8.28145C79.8513 7.18458 80.5708 6.39145 81.5915 6.39145C82.5617 6.39145 83.2143 7.13395 83.2143 8.16333V12.939H85.5571V7.6402C85.5571 5.6827 84.3188 4.29895 82.411 4.29895C81.2565 4.29895 80.3195 4.78833 79.8513 5.6152V4.43395H77.5085V12.939H79.8513Z" fill="white"/>
</g>
<defs>
<clipPath id="clip0_7468_111384">
<rect width="86" height="18" fill="white"/>
</clipPath>
</defs>
</svg>
