<svg width="40" height="40" viewBox="0 0 40 40" fill="none" xmlns="http://www.w3.org/2000/svg">
<g clip-path="url(#clip0_7468_111159)">
<path d="M20 40C31.0457 40 40 31.0457 40 20C40 8.9543 31.0457 0 20 0C8.9543 0 0 8.9543 0 20C0 31.0457 8.9543 40 20 40Z" fill="white"/>
<path d="M33.3332 20.4669V26.5006C33.331 26.8769 33.2316 27.2461 33.0446 27.5723C32.8577 27.8984 32.5896 28.1703 32.2665 28.3613L27.0582 31.3719C26.7356 31.5649 26.3671 31.6667 25.9915 31.6667C25.616 31.6667 25.2474 31.5649 24.9249 31.3719L19.7165 28.3613C19.3935 28.1703 19.1254 27.8984 18.9384 27.5723C18.7515 27.2461 18.652 26.8769 18.6499 26.5006V24.8071L21.3165 23.2538V26.1974L25.9832 28.9153L30.6499 26.1974V20.7742L25.9832 18.0563L15.0499 24.412C14.7243 24.5961 14.3569 24.6928 13.9832 24.6928C13.6095 24.6928 13.2421 24.5961 12.9165 24.412L7.70815 21.3889C7.3901 21.1949 7.12715 20.922 6.9447 20.5965C6.76225 20.2709 6.66645 19.9037 6.6665 19.5302V13.4965C6.66865 13.1202 6.7681 12.751 6.95505 12.4248C7.14205 12.0987 7.41015 11.8268 7.73315 11.6358L12.9415 8.62517C13.2648 8.43412 13.6331 8.33337 14.0082 8.33337C14.3833 8.33337 14.7516 8.43412 15.0749 8.62517L20.2832 11.6358C20.6062 11.8268 20.8743 12.0987 21.0613 12.4248C21.2483 12.751 21.3477 13.1202 21.3499 13.4965V15.1899L18.6665 16.7329V13.8059L13.9999 11.088L9.33315 13.8059V19.2229L13.9999 21.9408L24.9332 15.5851C25.2588 15.401 25.6262 15.3043 25.9999 15.3043C26.3736 15.3043 26.7409 15.401 27.0665 15.5851L32.2749 18.6082C32.596 18.8001 32.8623 19.0721 33.0477 19.3978C33.2332 19.7235 33.3315 20.0918 33.3332 20.4669Z" fill="#7B3FE4"/>
</g>
<defs>
<clipPath id="clip0_7468_111159">
<rect width="40" height="40" fill="white"/>
</clipPath>
</defs>
</svg>
