<svg version="1.1" id="Capa_1" xmlns="http://www.w3.org/2000/svg" xmlns:xlink="http://www.w3.org/1999/xlink" x="0px" y="0px"
	 viewBox="0 0 24 24" style="enable-background:new 0 0 24 24;" xml:space="preserve">
<style type="text/css"> .st0{fill:#FFFFFF;} </style>
<path class="st0" d="M11,13V3h2v10H11z M12,21c-1.2,0-2.4-0.2-3.5-0.7c-1.1-0.5-2-1.1-2.9-1.9c-0.8-0.8-1.5-1.8-1.9-2.9
	C3.2,14.4,3,13.2,3,12c0-1.3,0.3-2.6,0.8-3.8S5.2,6,6.2,5.2l1.4,1.4C6.8,7.2,6.1,8,5.7,9C5.2,9.9,5,10.9,5,12c0,1.9,0.7,3.6,2.1,5
	s3,2,4.9,2c1.9,0,3.6-0.7,5-2c1.4-1.4,2-3,2-5c0-1.1-0.2-2.1-0.7-3c-0.4-0.9-1.1-1.8-1.9-2.4l1.4-1.4c1,0.9,1.8,1.9,2.3,3.1
	C20.7,9.4,21,10.7,21,12c0,1.2-0.2,2.4-0.7,3.5c-0.5,1.1-1.1,2-1.9,2.9c-0.8,0.8-1.8,1.5-2.9,1.9C14.4,20.8,13.2,21,12,21z"/>
</svg>
