<svg width="175" height="18" viewBox="0 0 175 18" fill="none" xmlns="http://www.w3.org/2000/svg">
<path d="M22.6665 4.14589C22.0206 3.46538 21.2387 2.92834 20.3717 2.56965C19.4498 2.18475 18.4594 1.99106 17.4604 2.00032C16.5204 1.99744 15.5878 2.16594 14.7082 2.49755C13.8701 2.8078 13.0977 3.27246 12.4309 3.86744C11.7644 4.47701 11.2348 5.221 10.877 6.0503C10.4888 6.94252 10.2931 7.9066 10.3027 8.87958C10.2933 9.85254 10.489 10.8166 10.877 11.7089C11.2337 12.5366 11.7635 13.2784 12.4309 13.8843C13.1003 14.4783 13.8742 14.9428 14.7132 15.2541C15.5928 15.5858 16.5254 15.7543 17.4654 15.7514C18.7968 15.7634 20.1073 15.4201 21.2618 14.7569C22.3807 14.1275 23.2876 13.18 23.8673 12.0345L21.3264 10.8113C21.0018 11.5732 20.465 12.2256 19.78 12.6909C19.0935 13.1472 18.2847 13.3848 17.4604 13.3721C16.4868 13.3856 15.5421 13.0415 14.8052 12.405C14.042 11.7563 13.53 10.8608 13.3582 9.87405H24.5187C24.5898 8.78075 24.4523 7.68391 24.1134 6.64202C23.8191 5.71431 23.3253 4.86231 22.6665 4.14589V4.14589ZM13.3458 7.87516C13.5059 6.89018 14.0055 5.99221 14.7579 5.33677C15.5103 4.69657 16.4729 4.35739 17.4604 4.38456C18.4529 4.35744 19.4204 4.69737 20.1778 5.33926C20.9321 5.995 21.4312 6.89549 21.5875 7.88262L13.3458 7.87516Z" fill="#14F46F"/>
<path d="M33.8444 14.6972L29.4339 2.20166H26.269L31.0823 15.5574H33.5411H34.1453H36.6041L41.4198 2.20166H38.2524L33.8444 14.6972Z" fill="#14F46F"/>
<path d="M55.1012 4.14587C54.4549 3.46587 53.6731 2.92891 52.8065 2.56963C51.8845 2.185 50.8941 1.99132 49.8952 2.0003C48.9552 1.99743 48.0225 2.16592 47.143 2.49753C46.3022 2.80754 45.5277 3.27405 44.8606 3.87239C44.1934 4.48131 43.6637 5.22547 43.3068 6.05526C42.9165 6.94693 42.7199 7.91126 42.73 8.88453C42.7202 9.85779 42.9167 10.8221 43.3068 11.7138C43.6625 12.5421 44.1925 13.2841 44.8606 13.8892C45.5292 14.4843 46.3033 14.9489 47.143 15.2591C48.0225 15.5907 48.9552 15.7592 49.8952 15.7563C51.2258 15.7684 52.5355 15.4251 53.6891 14.7619C54.808 14.1342 55.7162 13.1896 56.2996 12.047L53.7612 10.8238C53.433 11.5815 52.8946 12.2294 52.2098 12.6909C51.5242 13.1473 50.7162 13.3849 49.8927 13.3721C48.9194 13.3862 47.9747 13.043 47.2374 12.4075C46.476 11.7573 45.9644 10.8625 45.7905 9.87652H56.9509C57.0229 8.78338 56.8862 7.68654 56.5482 6.64448C56.2522 5.71677 55.7586 4.8643 55.1012 4.14587V4.14587ZM45.778 7.87514C45.9392 6.89051 46.4385 5.99286 47.1902 5.33675C47.9575 4.71717 48.9139 4.37923 49.9001 4.37923C50.8863 4.37923 51.8428 4.71717 52.6101 5.33675C53.3642 5.99292 53.864 6.89307 54.0222 7.88012L45.778 7.87514Z" fill="#14F46F"/>
<path d="M76.1194 2.24902H73.1658V11.2739C73.1658 12.7855 73.4683 13.9067 74.0732 14.6377C74.6782 15.3686 75.6959 15.7341 77.1263 15.7341C77.9412 15.7287 78.7544 15.6572 79.5577 15.5203V13.0664C78.8805 13.2218 78.1793 13.2421 77.4942 13.1261C77.2883 13.1162 77.0872 13.0604 76.9057 12.9627C76.7242 12.8651 76.5668 12.728 76.445 12.5617C76.2012 12.14 76.0879 11.6555 76.1194 11.1694V7.19155H79.5577V4.59846H76.1194V2.24902Z" fill="#14F46F"/>
<path d="M0 2.20166V4.52624V15.5574H2.97596V8.87954L2.88397 4.52624H8.47539V2.20166H2.83425H0Z" fill="#14F46F"/>
<path d="M60.6082 2.20166V4.52624V15.5574H63.5866V8.87954L63.4921 4.52624H69.0835V2.20166H63.4424H60.6082Z" fill="#14F46F"/>
<path d="M93.0876 14.3193H84.6122V16H93.0876V14.3193Z" fill="#14F46F"/>
<path d="M102.138 15H104.838L108.492 5.838H106.044L103.506 13.236H103.452L100.932 5.838H98.5015L102.138 15ZM110.32 14.568C110.968 14.928 112.228 15.18 113.38 15.18C116.314 15.18 118.348 13.614 118.348 11.22C118.348 9.222 116.998 7.818 114.982 7.818C114.622 7.818 114.208 7.872 113.812 7.98C115.576 6.684 116.764 5.694 117.754 4.722V3.12H110.158V5.1H114.91C114.406 5.496 112.462 7.08 111.202 8.196L112.102 9.726C112.642 9.402 113.308 9.204 113.938 9.204C115.216 9.204 116.026 9.924 116.026 11.076C116.026 12.318 115.018 13.146 113.182 13.146C112.21 13.146 111.112 12.894 110.32 12.444V14.568ZM126.891 5.838V11.922C126.459 12.786 125.721 13.326 124.803 13.326C123.561 13.326 123.255 12.354 123.255 11.382V5.838H121.059V11.742C121.059 13.812 121.995 15.18 124.047 15.18C125.253 15.18 126.297 14.658 127.035 13.722V15H129.069V5.838H126.891ZM131.204 7.62H134.066V11.436C134.066 13.776 135.128 15.18 137.594 15.18C138.53 15.18 139.376 14.964 139.754 14.73V12.894C139.412 13.164 138.764 13.326 138.206 13.326C136.568 13.326 136.244 12.192 136.244 11.058V7.62H140.384V5.838H136.244V3.12H134.066V5.838H131.204V7.62ZM146.839 4.794C147.739 4.794 148.351 4.308 148.351 3.354C148.351 2.49 147.847 1.914 146.839 1.914C145.885 1.914 145.255 2.382 145.255 3.354C145.255 4.218 145.759 4.794 146.839 4.794ZM142.267 15H151.213V13.218H148.063V5.838H143.113V7.638H145.885V13.218H142.267V15ZM153.096 15H162.006V13.218H158.892V2.4H153.78V4.182H156.732V13.218H153.096V15ZM168.191 15.18C170.603 15.18 172.115 14.028 172.115 12.282C172.115 10.932 171.359 9.996 169.523 9.636L167.939 9.33C167.453 9.24 166.733 9.078 166.733 8.358C166.733 7.764 167.237 7.368 168.443 7.368C169.595 7.368 170.819 7.764 171.629 8.34V6.486C170.747 5.91 169.433 5.658 168.389 5.658C166.085 5.658 164.537 6.702 164.537 8.52C164.537 9.744 165.203 10.716 167.201 11.112L168.821 11.436C169.343 11.544 169.883 11.724 169.883 12.39C169.883 13.074 169.325 13.452 168.119 13.452C166.859 13.452 165.617 13.074 164.717 12.354V14.226C165.365 14.766 166.823 15.18 168.191 15.18Z" fill="white"/>
</svg>
