<?xml version="1.0" standalone="no"?>
<!DOCTYPE svg PUBLIC "-//W3C//DTD SVG 20010904//EN"
 "http://www.w3.org/TR/2001/REC-SVG-20010904/DTD/svg10.dtd">
<svg version="1.0" xmlns="http://www.w3.org/2000/svg"
 width="1024.000000pt" height="1024.000000pt" viewBox="0 0 1024.000000 1024.000000"
 preserveAspectRatio="xMidYMid meet">
<metadata>
Created by potrace 1.14, written by Peter Selinger 2001-2017
</metadata>
<g transform="translate(0.000000,1024.000000) scale(0.100000,-0.100000)"
fill="#000000" stroke="none">
<path d="M4829 10236 c-2 -2 -49 -6 -104 -10 -55 -3 -111 -8 -125 -10 -14 -3
-52 -7 -85 -10 -33 -3 -69 -8 -80 -10 -11 -2 -42 -7 -70 -10 -44 -6 -85 -13
-190 -32 -86 -15 -231 -47 -315 -70 -52 -13 -102 -26 -110 -28 -107 -26 -339
-104 -512 -172 -244 -96 -461 -202 -738 -361 -88 -51 -307 -197 -419 -281
-472 -350 -895 -792 -1205 -1257 -165 -248 -248 -390 -358 -615 -56 -116 -169
-374 -183 -420 -4 -14 -13 -38 -21 -55 -14 -33 -111 -326 -119 -359 -2 -12
-18 -72 -34 -135 -17 -63 -32 -126 -35 -140 -2 -14 -8 -44 -14 -66 -6 -22 -13
-53 -16 -70 -2 -16 -12 -70 -21 -120 -9 -49 -19 -108 -21 -130 -3 -22 -7 -50
-9 -61 -2 -12 -6 -46 -10 -75 -3 -30 -8 -70 -10 -89 -27 -234 -28 -820 -1
-1050 3 -19 7 -62 11 -95 8 -72 13 -113 19 -140 2 -11 7 -40 11 -65 5 -37 30
-172 51 -279 7 -36 83 -331 94 -366 198 -628 439 -1105 801 -1590 107 -144
114 -153 249 -310 90 -105 309 -329 415 -426 259 -234 590 -476 887 -647 93
-54 404 -215 418 -217 3 -1 28 -11 55 -24 210 -97 656 -252 824 -286 9 -2 63
-15 121 -29 58 -13 132 -30 165 -35 33 -6 69 -13 80 -15 23 -4 143 -23 195
-30 19 -3 62 -8 95 -12 33 -3 71 -8 85 -10 156 -26 865 -26 1055 1 17 3 53 7
80 10 851 99 1717 440 2404 947 84 62 266 205 297 233 6 6 44 39 85 75 85 75
331 319 404 401 190 213 351 424 489 639 106 165 108 168 199 330 216 384 422
934 512 1369 2 9 11 52 20 96 9 44 19 94 21 110 3 27 12 86 19 125 7 41 15
101 21 155 3 33 8 74 10 90 26 209 26 878 0 1035 -3 14 -7 50 -10 80 -10 98
-37 273 -61 390 -3 14 -8 41 -11 60 -26 151 -131 517 -204 711 -22 59 -40 109
-40 112 0 4 -11 30 -24 59 -13 29 -49 110 -79 179 -85 189 -215 434 -299 562
-21 32 -38 61 -38 63 0 15 -302 440 -330 464 -3 3 -29 34 -59 70 -157 191
-417 457 -597 610 -220 188 -389 311 -679 495 -50 32 -186 108 -320 179 -231
124 -604 273 -895 360 -83 25 -300 80 -350 90 -14 2 -59 11 -100 20 -104 21
-243 44 -315 51 -33 4 -67 8 -75 10 -8 2 -51 7 -95 11 -44 4 -93 9 -110 11
-36 5 -691 14 -696 9z m611 -470 c168 -13 214 -18 345 -38 77 -11 149 -22 160
-23 16 -3 177 -37 235 -50 595 -133 1229 -430 1735 -810 240 -180 551 -472
737 -690 555 -652 918 -1422 1057 -2245 22 -132 27 -162 36 -245 4 -33 9 -76
11 -95 23 -202 23 -769 0 -895 -2 -11 -7 -51 -11 -90 -8 -78 -30 -237 -39
-275 -3 -14 -8 -36 -10 -50 -12 -77 -19 -108 -26 -135 -5 -16 -11 -41 -14 -55
-10 -56 -59 -239 -96 -355 -110 -347 -256 -672 -438 -975 -54 -90 -164 -263
-172 -270 -3 -3 -28 -36 -55 -75 -58 -83 -47 -68 -136 -180 -242 -303 -626
-671 -905 -865 -477 -333 -866 -526 -1384 -688 -208 -65 -519 -132 -729 -157
-30 -4 -61 -8 -70 -10 -19 -3 -116 -12 -231 -21 -175 -14 -664 -7 -770 10 -14
3 -56 7 -93 11 -37 3 -76 8 -85 10 -9 1 -37 6 -62 9 -25 3 -55 8 -66 10 -12 2
-37 7 -55 10 -73 12 -97 17 -189 37 -648 143 -1277 432 -1805 832 -273 207
-578 498 -781 747 -16 19 -31 37 -35 40 -14 12 -164 216 -231 315 -188 275
-394 667 -493 935 -112 307 -175 526 -224 780 -29 148 -38 206 -56 360 -4 30
-8 69 -10 85 -31 241 -23 766 15 1040 5 39 12 90 16 115 5 38 44 249 58 315
39 184 137 502 216 700 157 393 366 764 613 1089 101 133 100 132 213 261 484
556 1094 987 1789 1265 104 41 411 146 455 155 8 2 51 13 96 24 45 12 90 23
100 25 10 3 42 10 69 16 28 6 61 14 75 16 14 2 48 9 75 14 85 16 211 35 301
45 27 3 67 7 89 10 22 2 94 7 160 11 66 4 121 8 123 9 5 4 423 -4 492 -9z"/>
<path d="M2940 5275 l0 -1925 431 0 431 0 -6 1268 c-3 697 -7 1323 -10 1392
-2 69 -7 214 -10 323 l-6 197 805 0 805 0 0 335 0 335 -1220 0 -1220 0 0
-1925z"/>
<path d="M5639 3698 c-1 -16 -1 -437 0 -459 1 -14 112 -16 1221 -16 l1220 0 0
244 0 243 -1220 0 c-969 0 -1220 -3 -1221 -12z"/>
</g>
</svg>
