<svg width="8" height="12" viewBox="0 0 8 12" fill="none" xmlns="http://www.w3.org/2000/svg">
<path d="M1.83317 11.3332C1.51095 11.3332 1.23595 11.2193 1.00817 10.9915C0.780393 10.7637 0.666504 10.4887 0.666504 10.1665C0.666504 9.84428 0.780393 9.56928 1.00817 9.3415C1.23595 9.11373 1.51095 8.99984 1.83317 8.99984C2.15539 8.99984 2.43039 9.11373 2.65817 9.3415C2.88595 9.56928 2.99984 9.84428 2.99984 10.1665C2.99984 10.4887 2.88595 10.7637 2.65817 10.9915C2.43039 11.2193 2.15539 11.3332 1.83317 11.3332ZM6.1665 11.3332C5.84428 11.3332 5.56928 11.2193 5.3415 10.9915C5.11373 10.7637 4.99984 10.4887 4.99984 10.1665C4.99984 9.84428 5.11373 9.56928 5.3415 9.3415C5.56928 9.11373 5.84428 8.99984 6.1665 8.99984C6.48873 8.99984 6.76373 9.11373 6.9915 9.3415C7.21928 9.56928 7.33317 9.84428 7.33317 10.1665C7.33317 10.4887 7.21928 10.7637 6.9915 10.9915C6.76373 11.2193 6.48873 11.3332 6.1665 11.3332ZM1.83317 7.1665C1.51095 7.1665 1.23595 7.05261 1.00817 6.82484C0.780393 6.59706 0.666504 6.32206 0.666504 5.99984C0.666504 5.67761 0.780393 5.40261 1.00817 5.17484C1.23595 4.94706 1.51095 4.83317 1.83317 4.83317C2.15539 4.83317 2.43039 4.94706 2.65817 5.17484C2.88595 5.40261 2.99984 5.67761 2.99984 5.99984C2.99984 6.32206 2.88595 6.59706 2.65817 6.82484C2.43039 7.05261 2.15539 7.1665 1.83317 7.1665ZM6.1665 7.1665C5.84428 7.1665 5.56928 7.05261 5.3415 6.82484C5.11373 6.59706 4.99984 6.32206 4.99984 5.99984C4.99984 5.67761 5.11373 5.40261 5.3415 5.17484C5.56928 4.94706 5.84428 4.83317 6.1665 4.83317C6.48873 4.83317 6.76373 4.94706 6.9915 5.17484C7.21928 5.40261 7.33317 5.67761 7.33317 5.99984C7.33317 6.32206 7.21928 6.59706 6.9915 6.82484C6.76373 7.05261 6.48873 7.1665 6.1665 7.1665ZM1.83317 2.99984C1.51095 2.99984 1.23595 2.88595 1.00817 2.65817C0.780393 2.43039 0.666504 2.15539 0.666504 1.83317C0.666504 1.51095 0.780393 1.23595 1.00817 1.00817C1.23595 0.780393 1.51095 0.666504 1.83317 0.666504C2.15539 0.666504 2.43039 0.780393 2.65817 1.00817C2.88595 1.23595 2.99984 1.51095 2.99984 1.83317C2.99984 2.15539 2.88595 2.43039 2.65817 2.65817C2.43039 2.88595 2.15539 2.99984 1.83317 2.99984ZM6.1665 2.99984C5.84428 2.99984 5.56928 2.88595 5.3415 2.65817C5.11373 2.43039 4.99984 2.15539 4.99984 1.83317C4.99984 1.51095 5.11373 1.23595 5.3415 1.00817C5.56928 0.780393 5.84428 0.666504 6.1665 0.666504C6.48873 0.666504 6.76373 0.780393 6.9915 1.00817C7.21928 1.23595 7.33317 1.51095 7.33317 1.83317C7.33317 2.15539 7.21928 2.43039 6.9915 2.65817C6.76373 2.88595 6.48873 2.99984 6.1665 2.99984Z" fill="#4FF793"/>
</svg>
