<svg width="24" height="24" viewBox="0 0 24 24" fill="none" xmlns="http://www.w3.org/2000/svg">
<path d="M12 24C18.6274 24 24 18.6274 24 12C24 5.37258 18.6274 0 12 0C5.37258 0 0 5.37258 0 12C0 18.6274 5.37258 24 12 24Z" fill="#39494E"/>
<path fill-rule="evenodd" clip-rule="evenodd" d="M17.2389 19.6094L20.6968 14.4977L20.6969 14.4975C21.8246 12.7685 19.7196 9.16009 15.8105 6.60413C11.9766 3.89783 7.91714 3.22125 6.71434 4.95028L6.71433 4.95028L3.34228 9.89645C3.33864 9.90156 3.33503 9.90669 3.33145 9.91184C2.12865 11.716 4.30873 15.1741 8.14266 17.8804C11.9391 20.5603 15.9567 21.2499 17.2028 19.5843L17.2389 19.6094Z" fill="url(#paint0_linear_2426_751)"/>
<path d="M20.9976 13.2862C20.9836 12.8945 20.8879 12.4668 20.7168 12.0164C19.2891 11.5663 18.2372 12.5432 17.9366 13.1444C16.6586 15.55 16.4331 15.7755 15.7565 16.3017C15.6814 16.3769 15.6062 16.3769 15.531 16.4521C14.7041 17.1287 13.3509 16.7528 12.3736 15.4748C11.3964 14.1968 10.795 13.6706 10.2687 13.6706C9.74251 13.5954 9.14111 13.8961 7.93831 15.1741C7.30474 15.8781 6.6712 16.1865 6.16109 16.2846C6.75504 16.8325 7.41934 17.3698 8.14266 17.8804C11.9391 20.5602 15.9561 21.2494 17.2022 19.584L17.2389 19.6094L20.6969 14.4975C20.7821 14.367 20.8485 14.2255 20.8974 14.0748C20.9637 13.8588 20.9979 13.6299 20.9995 13.388C20.9995 13.3777 20.9998 13.3675 20.9996 13.3571C20.9995 13.3337 20.9984 13.3098 20.9976 13.2862Z" fill="#0E0F23"/>
<path fill-rule="evenodd" clip-rule="evenodd" d="M20.1707 14.1968C19.1183 15.7003 15.4347 14.9486 11.9014 12.4678C8.29302 9.98702 6.18811 6.82966 7.24057 5.32616C8.29302 3.82265 11.9766 4.5744 15.5098 7.05519C19.0431 9.53597 21.148 12.6933 20.1707 14.1968H20.1707ZM16.863 11.9416C16.3368 12.6933 14.5326 12.3175 12.7284 11.1146C10.9993 9.91184 9.94687 8.33316 10.4731 7.58141C10.9993 6.82966 12.8035 7.20554 14.6077 8.40834C16.3368 9.61114 17.3892 11.1898 16.863 11.9416Z" fill="white"/>
<path d="M6.41363 6.67931C6.3999 6.60038 6.33157 6.54981 6.22957 6.59506C6.13238 6.63816 6.12311 6.72015 6.13642 6.77337C6.21159 6.9989 6.21373 7.13876 6.26328 7.28071C6.28931 7.35527 6.33156 7.3928 6.41363 7.35589C6.49571 7.31897 6.54096 7.2897 6.51995 7.1859C6.48773 7.04218 6.45845 6.91443 6.41363 6.67931Z" fill="white"/>
<path d="M6.78952 7.88211C6.77098 7.81856 6.69572 7.77485 6.62196 7.80675C6.5482 7.83864 6.55019 7.9144 6.56399 7.95728C7.39092 9.83666 9.11995 11.8664 11.3752 13.3699C11.4601 13.4295 11.5954 13.4241 11.6341 13.369C11.6843 13.2854 11.6825 13.1929 11.6007 13.1444C9.2703 11.6409 7.61644 9.68631 6.78952 7.88211H6.78952Z" fill="white"/>
<path d="M15.8857 15.2493C15.8093 15.2211 15.7522 15.2714 15.7354 15.3245C15.7186 15.3775 15.7354 15.4478 15.8105 15.4748C16.0361 15.55 16.3319 15.647 16.5575 15.7222C16.6663 15.7426 16.732 15.7063 16.7479 15.636C16.7638 15.5657 16.7252 15.5 16.6375 15.4748C16.4119 15.3996 15.9599 15.2706 15.8857 15.2493C15.8115 15.2279 15.8857 15.2493 15.8857 15.2493Z" fill="white"/>
<path d="M17.2389 15.55C17.1637 15.55 17.0885 15.6252 17.0885 15.7003C17.0885 15.7755 17.1637 15.8507 17.2389 15.8507C17.8403 15.9259 18.5168 16.001 19.0431 15.9259C19.1182 15.9259 19.1934 15.8507 19.1934 15.7755C19.1934 15.7003 19.1182 15.6252 19.0431 15.6252C18.4417 15.7003 17.8403 15.6252 17.2389 15.55Z" fill="white"/>
<defs>
<linearGradient id="paint0_linear_2426_751" x1="7.2126" y1="4.24558" x2="10.0335" y2="14.6703" gradientUnits="userSpaceOnUse">
<stop stop-color="#03B8FF"/>
<stop offset="1" stop-color="#FA52A0"/>
</linearGradient>
</defs>
</svg>
